# xmcd
#
# Track frame offsets: 
#        150
#        8814
#        17560
#        24507
#        36440
#        42220
#        54720
#        64235
#        74218
#        86528
#        97081
#        108352
#        115439
#        130798
#        135314
#        145813
#        156440
#        166220
#        184320
#        190962
#        199294
#        208725
#        215650
#        225642
#        232455
#
# Disc length: 3239 seconds
#
# Revision: 0
# Processed by: cddbd v1.5.2PL0 Copyright (c) Steve Scherf et al.
# Submitted via: ExactAudioCopy v0.99pb1
#
DISCID=7f0ca519
DTITLE=Н.Приезжева - Спасибо тому вдохновенью...
DYEAR=2003
DGENRE=Other
TTITLE0=Спасибо тому вдохновенью
TTITLE1=Желтые дюны
TTITLE2=И-а
TTITLE3=Стороны света
TTITLE4=Yes,no (Да,нет)
TTITLE5=Утренняя колыбельная
TTITLE6=Над простреленной каской
TTITLE7=Все печали мои
TTITLE8=Производственный романс
TTITLE9=Печальное танго
TTITLE10=Полет паденья
TTITLE11=Никому ничего не должна
TTITLE12=Колыбельная бабушки
TTITLE13=Птица
TTITLE14=На даче
TTITLE15=Женщина
TTITLE16=Конь веселый, вороной
TTITLE17=Колыбельная моря
TTITLE18=Вредные советы
TTITLE19=Ледяное стремя
TTITLE20=Все беды я перенесу
TTITLE21=Признание
TTITLE22=О Москве
TTITLE23=Тёпка
TTITLE24=Море
EXTD=
EXTT0=
EXTT1=
EXTT2=
EXTT3=
EXTT4=
EXTT5=
EXTT6=
EXTT7=
EXTT8=
EXTT9=
EXTT10=
EXTT11=
EXTT12=
EXTT13=
EXTT14=
EXTT15=
EXTT16=
EXTT17=
EXTT18=
EXTT19=
EXTT20=
EXTT21=
EXTT22=
EXTT23=
EXTT24=
PLAYORDER=
